<?xml version="1.0" encoding="utf-8"?>
<!-- Generator: Adobe Illustrator 27.9.3, SVG Export Plug-In . SVG Version: 9.03 Build 53313)  -->
<svg version="1.1" id="Capa_1" xmlns="http://www.w3.org/2000/svg" xmlns:xlink="http://www.w3.org/1999/xlink" x="0px" y="0px"
	 viewBox="0 0 1019.8 217.7" style="enable-background:new 0 0 1019.8 217.7;" xml:space="preserve">
<style type="text/css">
	.st0{fill-rule:evenodd;clip-rule:evenodd;fill:#E30613;}
	.st1{fill-rule:evenodd;clip-rule:evenodd;fill:#FFFFFF;}
</style>
<g>
	<polygon class="st0" points="483.6,217.7 0,217.7 0,0 483.6,0 483.6,217.7 	"/>
	<polygon class="st1" points="273,28.9 302.8,28.9 316,125.1 329.3,28.9 358.2,28.9 332.9,188.4 299.3,188.4 273,28.9 	"/>
	<path class="st1" d="M265.7,126.7l18.1,61.6l-28.6,0.1l-13.3-51.7c-2.2,0.3-4.5,0.5-6.8,0.5v51.2h-28.7V28.9l28.7,0
		c33,0,48.6,28,49,54.1C284.3,99.9,278.4,116.4,265.7,126.7L265.7,126.7z M235.1,57.6c13.4,0.1,19.1,11.7,19.2,24.2
		c0.1,12.8-6,26.6-19.2,26.7V57.6L235.1,57.6z"/>
	<path class="st1" d="M147.1,28.9c12.7,0,25.4,0,38.2,0l24.1,159.4h-28.7l-3-24.5h-22.8l-3,24.5H123L147.1,28.9L147.1,28.9z
		 M174.4,138.4l-8.2-67.9l-8.2,67.9H174.4L174.4,138.4z"/>
	<polygon class="st1" points="26.4,28.9 63.4,28.9 75.7,109.4 88.1,28.9 125.1,28.9 125.1,188.4 96.4,188.4 96.4,110.6 84.2,188.6 
		67.2,188.6 55.1,110.6 55.1,188.4 26.4,188.4 26.4,28.9 	"/>
	<polygon class="st1" points="443.5,159.4 467.8,159.4 467.8,188.4 414.8,188.4 414.8,28.9 443.5,28.9 443.5,159.4 	"/>
	<polygon class="st1" points="384.2,159.4 410,159.4 410,188.4 355.5,188.4 355.5,28.9 410,28.9 410,58.4 384.2,58.4 384.2,94 
		410,94 410,123.2 384.2,123.2 384.2,159.4 	"/>
	<polygon class="st1" points="803.1,29.1 821.5,29.1 821.5,188.4 803.1,188.4 803.1,29.1 	"/>
	<path class="st1" d="M726.9,29.1c9.9,0,19.9,0,29.8,0c26.6,0,35.9,13.3,35.9,36.2c0,29,0,58,0,86.9c0,23-9.2,36.2-35.9,36.2
		c-9.9,0-19.9,0-29.8,0V29.1L726.9,29.1z M773.6,61.6c0-8.6-4.6-15.6-17.9-15.6h-10.5v125.7h10.5c13.3,0,17.9-7.1,17.9-15.6
		C773.6,124.5,773.6,93,773.6,61.6L773.6,61.6z"/>
	<path class="st1" d="M650.7,29.1H669v131.2c0,5.1,1.3,12.6,11.7,12.6h4.8c10.8,0,11.7-7.6,11.7-12.6c0-43.7,0-87.5,0-131.2h18.4
		c0,44.1,0,88.1,0,132.2c0,19.9-11.2,28.4-26.3,28.4h-11.7c-15.1,0-26.9-9.2-26.9-28.4V29.1L650.7,29.1z"/>
	<path class="st1" d="M850.8,160.3c0,5.1,1.3,12.6,12,12.6h5c11.1,0,12-7.6,12-12.6c0-34.3,0-68.7,0-103c0-5.1-0.9-12.6-12-12.6h-5
		c-10.7,0-12,7.6-12,12.6C850.8,91.6,850.8,125.9,850.8,160.3L850.8,160.3z M898.8,161.3c0,19.9-11.6,28.4-27.1,28.4h-12.1
		c-15.5,0-27.7-9.2-27.7-28.4c0-35,0-70,0-105.1c0-19.2,12.1-28.4,27.7-28.4h12.1c15.5,0,27.1,8.6,27.1,28.4
		C898.8,91.2,898.8,126.3,898.8,161.3L898.8,161.3z"/>
	<polygon class="st1" points="620.1,46.2 620.1,188.4 601.8,188.4 601.8,46.2 577.9,46.2 577.9,29.1 644,29.1 644,46.2 620.1,46.2 	
		"/>
	<path class="st1" d="M933.5,27.7c-15.5,0-27.6,9.4-27.6,28.6c0,5.8,0,11.6,0,17.5c0,12.6,2.1,19.1,6.8,24.9
		c4.8,5.9,18.5,14.7,29.6,23.1c6.6,5,9.1,8.6,9.1,14.3c0,8.2,0,16.3,0,24.5c0,5.1-0.5,12.9-11.1,12.9h-4.5
		c-11.1,0-11.7-7.9-11.7-12.9v-21.9l-18,0v22.9c0,19.9,10.8,28.7,27.2,28.7h9.1c16.6,0,27.7-9.1,27.7-28.7c0-8.4,0-16.9,0-25.3
		c0-14.1-5.1-20.5-12.4-26.4c-7-5.7-18.6-13.4-25.8-19.1c-5.4-4.3-6.9-6.8-6.9-14.2c0-6.3,0-12.7,0-19c0-5.1,0.5-12.8,11.2-12.8h3.7
		c11.1,0,11.3,7.8,11.3,12.8V71h18.9V56.3c0-19.9-11.8-28.6-27.4-28.6H933.5L933.5,27.7z"/>
	<path class="st1" d="M537.9,27.7c-15.5,0-27.6,9.4-27.6,28.6c0,5.8,0,11.6,0,17.5c0,12.6,2.1,19.1,6.8,24.9
		c4.8,5.9,18.5,14.7,29.6,23.1c6.6,5,9.1,8.6,9.1,14.3c0,8.2,0,16.3,0,24.5c0,5.1-0.5,12.9-11.2,12.9h-4.5
		c-11.1,0-11.7-7.9-11.7-12.9v-21.9l-18,0v22.9c0,19.9,10.8,28.7,27.2,28.7h9.1c16.6,0,27.7-9.1,27.7-28.7c0-8.4,0-16.9,0-25.3
		c0-14.1-5.1-20.5-12.4-26.4c-7-5.7-18.6-13.4-25.8-19.1c-5.4-4.3-6.9-6.8-6.9-14.2c0-6.3,0-12.7,0-19c0-5.1,0.5-12.8,11.2-12.8h3.7
		c11.1,0,11.3,7.8,11.3,12.8V71h18.9V56.3c0-19.9-11.8-28.6-27.4-28.6H537.9L537.9,27.7z"/>
	<polygon class="st1" points="510,0 970.1,0 970.1,8.7 510,8.7 510,0 	"/>
	<polygon class="st1" points="510,209.1 970.1,209.1 970.1,217.7 510,217.7 510,209.1 	"/>
</g>
</svg>
